<svg xmlns="http://www.w3.org/2000/svg" version="1.1" width="188" height="148" viewBox="0 0 188 148">
<path d="M0 0 C16.83 0 33.66 0 51 0 C51.25 22.5 51.25 22.5 51.29785156 29.55664062 C51.32724374 31.42320184 51.35807352 33.28974121 51.390625 35.15625 C51.39231689 36.58469238 51.39231689 36.58469238 51.39404297 38.04199219 C51.52356229 44.13887721 52.44938061 48.93463172 56 54 C58.5840797 56.30822841 58.5840797 56.30822841 61.6875 57.9375 C62.82703125 58.59492187 63.9665625 59.25234375 65.140625 59.9296875 C67.87711637 61.42088943 70.64328124 62.84682669 73.421875 64.2578125 C74.17122314 64.64203369 74.92057129 65.02625488 75.69262695 65.42211914 C77.14896193 66.1619278 78.61337695 66.88611937 80.08666992 67.59155273 C86.93165163 71.02901016 91.53445807 75.65878279 94 83 C94.24050903 86.06892395 94.24050903 86.06892395 94.22705078 89.53442383 C94.22689972 90.83539505 94.22674866 92.13636627 94.22659302 93.47676086 C94.21638124 94.88685257 94.20594927 96.29694269 94.1953125 97.70703125 C94.19157959 99.15719914 94.18873393 100.60736957 94.18673706 102.05754089 C94.17912249 105.86338334 94.15949289 109.6690717 94.1373291 113.47485352 C94.11321463 118.04705369 94.10407931 122.61930556 94.09242249 127.19155121 C94.07306704 134.12780778 94.0347296 141.06372665 94 148 C77.17 148 60.34 148 43 148 C42.97873047 139.3684375 42.97873047 139.3684375 42.95703125 130.5625 C42.93696388 126.90749127 42.91543683 123.2526071 42.88867188 119.59765625 C42.84636813 113.80187129 42.80934407 108.00640223 42.80444336 102.21044922 C42.80015116 97.53524314 42.77161227 92.86074529 42.72656822 88.1857605 C42.71362261 86.4061191 42.7092751 84.62639282 42.71384621 82.84671021 C43.13787185 70.92383044 43.13787185 70.92383044 38.39900208 60.38494873 C34.75639323 56.77893086 31.07272567 54.35569335 26.5078125 52.046875 C25.47269531 51.50933594 24.43757813 50.97179688 23.37109375 50.41796875 C21.21954396 49.3124191 19.06330887 48.21593719 16.90234375 47.12890625 C9.6320907 43.32669938 2.71528844 39.14586532 0 31 C-0.08397157 28.64319787 -0.10728187 26.28405919 -0.09765625 23.92578125 C-0.09515869 22.67450439 -0.09266113 21.42322754 -0.09008789 20.1340332 C-0.08098389 18.54292725 -0.07187988 16.95182129 -0.0625 15.3125 C-0.041875 10.259375 -0.02125 5.20625 0 0 Z " fill="#2563eb" transform="translate(0,0)"/>
<path d="M0 0 C16.83 0 33.66 0 51 0 C51.03738281 5.45402344 51.07476562 10.90804688 51.11328125 16.52734375 C51.14357959 19.99547349 51.17473961 23.46355308 51.20898438 26.93164062 C51.2631829 32.42876572 51.31429761 37.92579159 51.34643555 43.4230957 C51.37256462 47.85827544 51.41303404 52.29311945 51.46318626 56.72809029 C51.47979031 58.41479865 51.49134464 60.10156499 51.49761391 61.78834343 C51.23387495 76.16897259 51.23387495 76.16897259 57.28515625 88.82421875 C60.21632255 91.17336929 63.14465496 93.0042903 66.4375 94.8125 C67.04078125 95.15087891 67.6440625 95.48925781 68.265625 95.83789062 C71.42609866 97.60788674 74.61073528 99.3251746 77.81640625 101.01171875 C85.6426747 105.19666964 92.06194641 109.18583922 95 118 C95.08378628 120.2838517 95.10729915 122.570101 95.09765625 124.85546875 C95.09515869 126.06614014 95.09266113 127.27681152 95.09008789 128.52416992 C95.08098389 130.06306885 95.07187988 131.60196777 95.0625 133.1875 C95.041875 138.075625 95.02125 142.96375 95 148 C78.17 148 61.34 148 44 148 C43.75 126 43.75 126 43.70214844 119.1015625 C43.67275512 117.27601637 43.64192514 115.45049257 43.609375 113.625 C43.60768311 112.22894531 43.60768311 112.22894531 43.60595703 110.8046875 C43.45444159 103.8275861 42.08644822 98.32519091 37.24829102 93.11279297 C30.83075395 88.68875917 24.00704649 85.163895 17.04492188 81.67578125 C9.85407026 77.91410732 3.98514527 73.85096866 0.82836914 66.13696289 C-0.70604218 60.16417293 -0.24413485 53.87297978 -0.1953125 47.75390625 C-0.19157695 46.37385769 -0.18873254 44.99380645 -0.18673706 43.61375427 C-0.17914324 40.00192798 -0.15953194 36.39026551 -0.1373291 32.77850342 C-0.11677846 29.08478043 -0.10760573 25.39102988 -0.09765625 21.69726562 C-0.07734576 14.46469962 -0.03818905 7.232582 0 0 Z " fill="#2563eb" transform="translate(93,0)"/>
</svg>