<?xml version="1.0" encoding="UTF-8"?>
<svg version="1.1" xmlns="http://www.w3.org/2000/svg" width="935" height="148" viewBox="0 0 935 148">
<path d="M0 0 C16.83 0 33.66 0 51 0 C51.25 22.5 51.25 22.5 51.29785156 29.55664062 C51.32724374 31.42320184 51.35807352 33.28974121 51.390625 35.15625 C51.39231689 36.58469238 51.39231689 36.58469238 51.39404297 38.04199219 C51.52356229 44.13887721 52.44938061 48.93463172 56 54 C58.5840797 56.30822841 58.5840797 56.30822841 61.6875 57.9375 C62.82703125 58.59492187 63.9665625 59.25234375 65.140625 59.9296875 C67.87711637 61.42088943 70.64328124 62.84682669 73.421875 64.2578125 C74.17122314 64.64203369 74.92057129 65.02625488 75.69262695 65.42211914 C77.14896193 66.1619278 78.61337695 66.88611937 80.08666992 67.59155273 C86.93165163 71.02901016 91.53445807 75.65878279 94 83 C94.24050903 86.06892395 94.24050903 86.06892395 94.22705078 89.53442383 C94.22689972 90.83539505 94.22674866 92.13636627 94.22659302 93.47676086 C94.21638124 94.88685257 94.20594927 96.29694269 94.1953125 97.70703125 C94.19157959 99.15719914 94.18873393 100.60736957 94.18673706 102.05754089 C94.17912249 105.86338334 94.15949289 109.6690717 94.1373291 113.47485352 C94.11321463 118.04705369 94.10407931 122.61930556 94.09242249 127.19155121 C94.07306704 134.12780778 94.0347296 141.06372665 94 148 C77.17 148 60.34 148 43 148 C42.97873047 139.3684375 42.97873047 139.3684375 42.95703125 130.5625 C42.93696388 126.90749127 42.91543683 123.2526071 42.88867188 119.59765625 C42.84636813 113.80187129 42.80934407 108.00640223 42.80444336 102.21044922 C42.80015116 97.53524314 42.77161227 92.86074529 42.72656822 88.1857605 C42.71362261 86.4061191 42.7092751 84.62639282 42.71384621 82.84671021 C43.13787185 70.92383044 43.13787185 70.92383044 38.39900208 60.38494873 C34.75639323 56.77893086 31.07272567 54.35569335 26.5078125 52.046875 C25.47269531 51.50933594 24.43757813 50.97179688 23.37109375 50.41796875 C21.21954396 49.3124191 19.06330887 48.21593719 16.90234375 47.12890625 C9.6320907 43.32669938 2.71528844 39.14586532 0 31 C-0.08397157 28.64319787 -0.10728187 26.28405919 -0.09765625 23.92578125 C-0.09515869 22.67450439 -0.09266113 21.42322754 -0.09008789 20.1340332 C-0.08098389 18.54292725 -0.07187988 16.95182129 -0.0625 15.3125 C-0.041875 10.259375 -0.02125 5.20625 0 0 Z " fill="#FFFFFF" transform="translate(0,0)"/>
<path d="M0 0 C16.83 0 33.66 0 51 0 C51.03738281 5.45402344 51.07476562 10.90804688 51.11328125 16.52734375 C51.14357959 19.99547349 51.17473961 23.46355308 51.20898438 26.93164062 C51.2631829 32.42876572 51.31429761 37.92579159 51.34643555 43.4230957 C51.37256462 47.85827544 51.41303404 52.29311945 51.46318626 56.72809029 C51.47979031 58.41479865 51.49134464 60.10156499 51.49761391 61.78834343 C51.23387495 76.16897259 51.23387495 76.16897259 57.28515625 88.82421875 C60.21632255 91.17336929 63.14465496 93.0042903 66.4375 94.8125 C67.04078125 95.15087891 67.6440625 95.48925781 68.265625 95.83789062 C71.42609866 97.60788674 74.61073528 99.3251746 77.81640625 101.01171875 C85.6426747 105.19666964 92.06194641 109.18583922 95 118 C95.08378628 120.2838517 95.10729915 122.570101 95.09765625 124.85546875 C95.09515869 126.06614014 95.09266113 127.27681152 95.09008789 128.52416992 C95.08098389 130.06306885 95.07187988 131.60196777 95.0625 133.1875 C95.041875 138.075625 95.02125 142.96375 95 148 C78.17 148 61.34 148 44 148 C43.75 126 43.75 126 43.70214844 119.1015625 C43.67275512 117.27601637 43.64192514 115.45049257 43.609375 113.625 C43.60768311 112.22894531 43.60768311 112.22894531 43.60595703 110.8046875 C43.45444159 103.8275861 42.08644822 98.32519091 37.24829102 93.11279297 C30.83075395 88.68875917 24.00704649 85.163895 17.04492188 81.67578125 C9.85407026 77.91410732 3.98514527 73.85096866 0.82836914 66.13696289 C-0.70604218 60.16417293 -0.24413485 53.87297978 -0.1953125 47.75390625 C-0.19157695 46.37385769 -0.18873254 44.99380645 -0.18673706 43.61375427 C-0.17914324 40.00192798 -0.15953194 36.39026551 -0.1373291 32.77850342 C-0.11677846 29.08478043 -0.10760573 25.39102988 -0.09765625 21.69726562 C-0.07734576 14.46469962 -0.03818905 7.232582 0 0 Z " fill="#FFFFFF" transform="translate(93,0)"/>
<path d="M0 0 C0.88490616 -0.0033284 1.76981232 -0.0066568 2.68153381 -0.01008606 C4.56380696 -0.01516342 6.44608915 -0.01749414 8.32836914 -0.01733398 C11.17935611 -0.01949838 14.02994212 -0.03758336 16.88085938 -0.05664062 C18.71223827 -0.05957898 20.54361899 -0.06156081 22.375 -0.0625 C23.21707504 -0.06968552 24.05915009 -0.07687103 24.92674255 -0.08427429 C36.13382104 -0.04206424 45.01508378 1.89789628 53.09765625 9.98046875 C57.93466692 17.0286843 59.32917837 23.6378335 58.28515625 32.16796875 C56.71724581 38.65426492 54.16226528 43.01983185 48.96875 47.20703125 C47.28515625 48.16796875 47.28515625 48.16796875 44.28515625 48.16796875 C44.28515625 48.82796875 44.28515625 49.48796875 44.28515625 50.16796875 C45.00703125 50.37421875 45.72890625 50.58046875 46.47265625 50.79296875 C51.22063952 53.11420502 53.59745968 56.28427814 55.36328125 61.12109375 C56.75989502 66.38461229 56.96886554 71.81870229 57.34765625 77.23046875 C57.50292765 79.34652275 57.66041193 81.46241577 57.8203125 83.578125 C57.88613525 84.50761963 57.95195801 85.43711426 58.01977539 86.39477539 C58.30123585 89.33599831 58.79941323 92.25351065 59.28515625 95.16796875 C54.33515625 95.16796875 49.38515625 95.16796875 44.28515625 95.16796875 C42.68592622 91.16989368 42.01589355 89.16358145 41.7578125 85.11328125 C41.68755859 84.16839844 41.61730469 83.22351563 41.54492188 82.25 C41.41394744 80.28668026 41.28631521 78.32313456 41.16210938 76.359375 C40.73208334 70.66443563 40.01919953 66.21751042 37.28515625 61.16796875 C32.73077751 57.57240658 27.8553839 57.09429754 22.203125 56.8515625 C20.94278442 56.79440063 20.94278442 56.79440063 19.65698242 56.73608398 C18.60615479 56.69298096 17.55532715 56.64987793 16.47265625 56.60546875 C13.11078125 56.46109375 9.74890625 56.31671875 6.28515625 56.16796875 C6.28515625 69.03796875 6.28515625 81.90796875 6.28515625 95.16796875 C1.00515625 95.16796875 -4.27484375 95.16796875 -9.71484375 95.16796875 C-9.73796541 82.92916546 -9.75575793 70.69036732 -9.76665592 58.45154667 C-9.77188514 52.76920363 -9.77898348 47.08687548 -9.7902832 41.40454102 C-9.80111071 35.92567739 -9.80712029 30.44682813 -9.80972099 24.96795464 C-9.81157549 22.87267264 -9.81519657 20.77739147 -9.82057381 18.68211555 C-9.82778243 15.75819291 -9.82883477 12.83433042 -9.82836914 9.91040039 C-9.83196442 9.03502625 -9.83555969 8.1596521 -9.83926392 7.25775146 C-9.82469325 -1.14023554 -7.61179414 0.00984616 0 0 Z M6.28515625 13.16796875 C6.28515625 23.06796875 6.28515625 32.96796875 6.28515625 43.16796875 C10.61640625 43.25046875 14.94765625 43.33296875 19.41015625 43.41796875 C20.76512207 43.45438477 22.12008789 43.49080078 23.51611328 43.52832031 C31.61922572 43.60318143 35.2054534 42.96631278 41.09765625 37.48046875 C43.65339218 32.50350931 43.90073243 27.16772174 42.22265625 21.85546875 C40.46635996 17.86605364 38.2493406 16.07382661 34.28515625 14.16796875 C28.30971563 12.99297913 22.41962744 13.05193573 16.34765625 13.10546875 C13.02703125 13.12609375 9.70640625 13.14671875 6.28515625 13.16796875 Z " fill="#FFFFFF" transform="translate(617.71484375,22.83203125)"/>
<path d="M0 0 C4.62 0 9.24 0 14 0 C14 13.2 14 26.4 14 40 C28.19 40 42.38 40 57 40 C56.96039595 27.21006205 56.96039595 27.21006205 56.90991211 14.42016602 C56.90699297 12.8230801 56.90444441 11.22599345 56.90234375 9.62890625 C56.89722778 8.79194214 56.89211182 7.95497803 56.88684082 7.09265137 C56.88653076 5.06141735 56.93759812 3.03027529 57 1 C57.33 0.67 57.66 0.34 58 0 C62.62 0 67.24 0 72 0 C72 31.35 72 62.7 72 95 C67.05 95 62.1 95 57 95 C57 81.14 57 67.28 57 53 C42.81 53 28.62 53 14 53 C14 66.86 14 80.72 14 95 C9.38 95 4.76 95 0 95 C0 63.65 0 32.3 0 0 Z " fill="#FFFFFF" transform="translate(246,23)"/>
<path d="M0 0 C7.27550133 5.49565765 10.45822064 13.99893223 12.0703125 22.75 C12.34702397 25.52832831 12.40527784 28.2716625 12.3828125 31.0625 C12.37717285 31.80306641 12.3715332 32.54363281 12.36572266 33.30664062 C12.12524472 44.24957733 9.21972842 53.24268156 1.59375 61.3125 C-5.52350971 67.70661567 -11.97138695 68.29817126 -21.2578125 68.10546875 C-28.82494683 67.37290575 -33.05542223 64.44941222 -38.9296875 59.75 C-39.2596875 70.31 -39.5896875 80.87 -39.9296875 91.75 C-44.8796875 91.75 -49.8296875 91.75 -54.9296875 91.75 C-54.9296875 60.07 -54.9296875 28.39 -54.9296875 -4.25 C-49.9796875 -4.25 -45.0296875 -4.25 -39.9296875 -4.25 C-39.5996875 -1.61 -39.2696875 1.03 -38.9296875 3.75 C-38.5171875 3.35167969 -38.1046875 2.95335937 -37.6796875 2.54296875 C-26.60819238 -7.6141395 -12.56113879 -8.13677006 0 0 Z M-36.6328125 15.73828125 C-41.34600317 23.04940532 -41.11260156 33.05128994 -39.39453125 41.328125 C-37.55930144 46.58309999 -34.88704331 50.36552882 -30.3671875 53.5625 C-24.79198258 55.48847988 -19.27518924 55.8689347 -13.6171875 53.9765625 C-8.77719657 51.39156734 -5.98141503 47.80744007 -3.7734375 42.83203125 C-1.39817684 34.1557319 -1.57436797 23.7097219 -5.9296875 15.75 C-9.34153557 11.70965361 -12.83113104 8.12952118 -18.2578125 7.46484375 C-26.5896882 7.17796779 -31.22752168 9.50476039 -36.6328125 15.73828125 Z " fill="#FFFFFF" transform="translate(524.9296875,51.25)"/>
<path d="M0 0 C7.62549013 5.65292411 12.19360578 12.39656853 14.25 21.66796875 C16.44114012 36.68133626 14.65080576 48.73568395 6.4375 61.48046875 C-0.30798644 68.22595519 -7.18789931 69.98838641 -16.47949219 70.05957031 C-25.18736933 69.89853154 -30.64116984 66.77679891 -36.75 60.66796875 C-37.08 71.55796875 -37.41 82.44796875 -37.75 93.66796875 C-42.37 93.66796875 -46.99 93.66796875 -51.75 93.66796875 C-51.75 61.98796875 -51.75 30.30796875 -51.75 -2.33203125 C-47.13 -2.33203125 -42.51 -2.33203125 -37.75 -2.33203125 C-37.42 0.30796875 -37.09 2.94796875 -36.75 5.66796875 C-36.3375 5.26964844 -35.925 4.87132812 -35.5 4.4609375 C-25.70259367 -4.52730804 -11.91538831 -6.9963711 0 0 Z M-33.5625 16.91796875 C-37.7907835 23.46902642 -38.64045892 31.01453072 -37.75 38.66796875 C-36.02481292 46.26085799 -33.36137931 51.40151215 -26.75 55.66796875 C-22.56634937 57.75979406 -17.30592381 57.09732283 -12.75 56.66796875 C-7.60426295 54.18698839 -4.02235452 50.78059569 -1.83984375 45.44140625 C1.27409902 36.08509447 1.133291 27.80146919 -2.75 18.66796875 C-5.41612196 14.16770615 -8.78717036 11.35345806 -13.75 9.66796875 C-22.17400581 8.53825936 -28.23992277 10.15643895 -33.5625 16.91796875 Z " fill="#FFFFFF" transform="translate(447.75,49.33203125)"/>
<path d="M0 0 C4.62 0 9.24 0 14 0 C14.33 10.56 14.66 21.12 15 32 C17.31 30.02 19.62 28.04 22 26 C29.49179816 22.12493199 37.60651732 21.74152071 45.8125 23.65625 C53.37266673 26.3299675 58.56898135 30.92433837 62.3125 38 C67.54615516 49.74217503 68.21054634 62.58273989 65 75 C61.43472679 84.20191994 56.72682788 90.34091325 48 95 C40.43482969 97.52172344 30.43131065 97.24941296 23.25 93.75 C20.07558874 91.87421153 17.349285 89.88321341 15 87 C14.67 89.64 14.34 92.28 14 95 C9.38 95 4.76 95 0 95 C0 63.65 0 32.3 0 0 Z M18.75 42.1875 C13.76550604 50.19829387 12.59965421 58.74012092 14.65625 67.93359375 C16.67405656 74.34360855 19.33199116 78.34231942 25 82 C29.18365063 84.09182531 34.44407619 83.42935408 39 83 C44.14573705 80.51901964 47.72764548 77.11262694 49.91015625 71.7734375 C53.02409902 62.41712572 52.883291 54.13350044 49 45 C46.33387804 40.4997374 42.96282964 37.68548931 38 36 C29.85802678 34.90811286 24.69629583 36.40637905 18.75 42.1875 Z " fill="#FFFFFF" transform="translate(755,23)"/>
<path d="M0 0 C4.54112981 2.9822345 7.91948592 6.5435876 9.56712341 11.81414795 C10.07786174 14.39317036 10.11967019 16.7811603 10.11352539 19.41113281 C10.11344986 20.49195129 10.11337433 21.57276978 10.11329651 22.68634033 C10.10813522 23.84687927 10.10297394 25.00741821 10.09765625 26.203125 C10.0962413 27.39605164 10.09482635 28.58897827 10.09336853 29.8180542 C10.08777038 33.62872829 10.07521819 37.43934366 10.0625 41.25 C10.05748476 43.83333248 10.0529219 46.41666589 10.04882812 49 C10.03780155 55.33335596 10.02053814 61.66666803 10 68 C5.38 68 0.76 68 -4 68 C-4.495 64.535 -4.495 64.535 -5 61 C-5.50789063 61.40992187 -6.01578125 61.81984375 -6.5390625 62.2421875 C-7.22742188 62.78101562 -7.91578125 63.31984375 -8.625 63.875 C-9.29789062 64.40867187 -9.97078125 64.94234375 -10.6640625 65.4921875 C-17.5040621 69.9073043 -25.13293518 69.82219049 -33 69 C-38.51086497 67.43482699 -42.70590316 65.01364274 -46.0625 60.3125 C-49.31442025 54.1558396 -49.79944083 47.84562288 -47.875 41.1875 C-45.68328207 35.62992954 -42.45866399 32.53516077 -37.09375 29.99609375 C-31.4424982 27.5418848 -25.691299 26.72680023 -19.625 25.875 C-17.4912176 25.56653205 -15.35834044 25.25171638 -13.2265625 24.9296875 C-11.82784912 24.73221924 -11.82784912 24.73221924 -10.40087891 24.53076172 C-7.75422244 24.09760596 -7.75422244 24.09760596 -5 22 C-5.20208327 16.32194525 -5.20208327 16.32194525 -7.9375 11.5625 C-13.48665514 8.7312984 -19.36278769 8.20688188 -25.375 9.9375 C-28.66409667 11.34901517 -29.89447123 13.02135235 -31.5 16.1875 C-31.995 17.445625 -32.49 18.70375 -33 20 C-37.62 20 -42.24 20 -47 20 C-46.60228301 12.57594944 -44.60712834 7.41807549 -39.13671875 2.234375 C-28.46406425 -6.3037486 -11.75265103 -6.89488861 0 0 Z M-15.6875 35.75 C-16.68201172 35.90726563 -17.67652344 36.06453125 -18.70117188 36.2265625 C-24.41202998 37.21446876 -28.53040317 38.23456851 -33 42 C-34.56935594 45.13871188 -34.35201103 47.53855822 -34 51 C-31.44962045 54.08730156 -29.22604037 56.7182812 -25.1171875 57.23828125 C-19.27926427 57.43152261 -14.68176123 56.67196959 -10 53 C-4.98914942 46.93227027 -3.85042156 41.77807873 -4 34 C-7.86590059 34 -11.88806283 35.10267059 -15.6875 35.75 Z " fill="#FFFFFF" transform="translate(376,50)"/>
<path d="M0 0 C7.54017474 5.38203285 13.09374913 11.89511167 15.4921875 20.9375 C17.59866441 33.64117614 16.69205427 46.45983756 9.3125 57.375 C4.5226829 63.19553724 -1.74373621 67.07200721 -9 69 C-20.82731231 70.00508781 -30.76697458 69.47480483 -40.3125 61.75 C-47.66770346 54.76552252 -51.48956131 46.48187214 -52.28515625 36.37890625 C-52.58360571 23.49367502 -50.07872731 13.96578587 -41.44140625 4.24609375 C-30.74512787 -5.98847477 -12.585076 -7.55993965 0 0 Z M-33 16 C-38.03101918 23.36684951 -37.622413 31.3738818 -37 40 C-35.4574332 46.84018194 -32.86213013 51.17167012 -27 55 C-22.85344863 57.29151523 -18.65121739 57.68652655 -14 57 C-8.11134302 55.08781618 -4.4513386 52.07549793 -1 47 C2.24656933 39.13022418 2.47937731 28.9944267 0.0546875 20.80859375 C-2.6436619 15.11490681 -5.77388297 11.69795633 -11.375 8.75 C-20.1782594 6.23478303 -27.19054396 9.22230128 -33 16 Z " fill="#FFFFFF" transform="translate(878,50)"/>
<path d="M0 0 C7.35322165 5.17042451 12.71951372 12.73713622 14.66796875 21.59375 C16.69433111 34.73559521 15.00821998 46.32238645 7.66796875 57.59375 C2.5228252 63.72154972 -4.25641722 67.89699828 -12.27783203 68.81689453 C-23.45459836 69.63784513 -32.64047822 68.57614408 -41.64453125 61.40625 C-49.53008061 53.90225948 -53.29510028 43.27927071 -53.64453125 32.46875 C-52.78586052 21.821233 -50.21162917 10.57388907 -41.95703125 3.09375 C-29.90605936 -5.96451934 -13.15976605 -7.93553732 0 0 Z M-33.14453125 14.28125 C-37.97751604 21.59976983 -39.27214195 28.8945923 -38.33203125 37.59375 C-36.86008424 44.06230626 -34.75045728 49.77993048 -29.33203125 53.84375 C-24.27288663 56.7949177 -20.05827752 57.11521229 -14.33203125 56.59375 C-8.85616717 54.76846197 -5.45123236 51.33235935 -2.33203125 46.59375 C1.9285402 37.99282111 1.72741066 28.89832969 -1.29296875 19.921875 C-3.64693962 14.64756433 -6.76788849 11.47535774 -11.76953125 8.65625 C-20.51012194 6.04940716 -26.71179837 8.13441636 -33.14453125 14.28125 Z " fill="#FFFFFF" transform="translate(732.33203125,50.40625)"/>
<path d="M0 0 C4.95 0 9.9 0 15 0 C16.76147843 4.99413685 18.52123768 9.98887525 20.27954102 14.98413086 C20.87544575 16.67634648 21.47178555 18.36840898 22.06860352 20.06030273 C25.81257418 30.67504209 29.4840102 41.3073314 33 52 C35.73728172 45.35233165 38.2044083 38.66336749 40.453125 31.8359375 C40.75820984 30.91785309 41.06329468 29.99976868 41.37762451 29.05386353 C42.33794025 26.16184736 43.29404308 23.26845951 44.25 20.375 C44.90597015 18.39704258 45.56221769 16.41917714 46.21875 14.44140625 C47.81570416 9.62865992 49.40888534 4.81467988 51 0 C55.95 0 60.9 0 66 0 C64.55713624 7.49374144 62.16837612 14.37271149 59.45703125 21.49609375 C59.01034592 22.68364761 58.56366058 23.87120148 58.10343933 25.09474182 C56.91862211 28.24093635 55.72853188 31.38503046 54.53588867 34.52825928 C53.34650888 37.66739102 52.16499466 40.80946949 50.98242188 43.95117188 C48.73729504 49.90961406 46.47787834 55.86248629 44.21099854 61.81268311 C43.10089836 64.73443813 42.00095634 67.659789 40.90380859 70.58642578 C40.29433906 72.19448523 39.68450785 73.80240767 39.07421875 75.41015625 C38.68602715 76.45797523 38.68602715 76.45797523 38.28999329 77.52696228 C35.18159071 85.64334325 31.29259103 90.85370448 23.5 94.75 C17.85823118 96.75716775 11.89937934 96.24280982 6 96 C6 92.04 6 88.08 6 84 C7.32064453 83.88785156 7.32064453 83.88785156 8.66796875 83.7734375 C16.18281519 83.22362634 16.18281519 83.22362634 22.25 79.3125 C24.78127172 74.52116425 25.4566079 70.79672637 24.1105957 65.50024414 C23.63710693 64.27426514 23.16361816 63.04828613 22.67578125 61.78515625 C22.41803925 61.10419891 22.16029724 60.42324158 21.89474487 59.72164917 C21.04856704 57.49604465 20.18060837 55.27963098 19.3125 53.0625 C18.72079738 51.51632335 18.13073008 49.96951997 17.54223633 48.42211914 C16.32268089 45.22141287 15.09496134 42.02403051 13.86035156 38.82910156 C11.19331305 31.91988657 8.58619401 24.98824767 5.98397827 18.05441284 C5.19640616 15.96117116 4.40307726 13.87018644 3.60864258 11.77954102 C3.12830524 10.50801784 2.64807453 9.23645438 2.16796875 7.96484375 C1.74797607 6.8574585 1.3279834 5.75007324 0.89526367 4.60913086 C0 2 0 2 0 0 Z " fill="#FFFFFF" transform="translate(536,47)"/>
<path d="M0 0 C4.62 0 9.24 0 14 0 C14 5.94 14 11.88 14 18 C18.95 18 23.9 18 29 18 C29 22.29 29 26.58 29 31 C24.05 31 19.1 31 14 31 C14.09360093 36.62366547 14.19971008 42.2469038 14.31738281 47.87011719 C14.35564968 49.78281195 14.39050658 51.69557811 14.421875 53.60839844 C14.46757527 56.35898342 14.52556145 59.10907783 14.5859375 61.859375 C14.59748871 62.71368103 14.60903992 63.56798706 14.62094116 64.44818115 C14.64081085 65.24870911 14.66068054 66.04923706 14.68115234 66.87402344 C14.69447601 67.57573669 14.70779968 68.27744995 14.7215271 69.00042725 C15.05387694 71.38686299 15.69152038 72.97758347 17 75 C19.88211302 75.96070434 21.69850044 76.10581883 24.6875 76.0625 C26.110625 76.041875 27.53375 76.02125 29 76 C29 80.29 29 84.58 29 89 C21.14556682 90.57088664 14.20765226 90.95004524 7 87 C3.33203391 83.96994105 1.33312547 81.54084297 0 77 C-0.26992058 73.4812233 -0.23245129 69.97648028 -0.1953125 66.44921875 C-0.1924826 65.43527542 -0.18965271 64.42133209 -0.18673706 63.37666321 C-0.17556625 60.14682073 -0.15046711 56.91725829 -0.125 53.6875 C-0.1149662 51.49414464 -0.10584105 49.30078492 -0.09765625 47.10742188 C-0.07563701 41.7381738 -0.04112825 36.36913434 0 31 C-3.96 31 -7.92 31 -12 31 C-12.09765625 21.72265625 -12.09765625 21.72265625 -12 19 C-11 18 -11 18 -8.49609375 17.90234375 C-5.6640625 17.93489583 -2.83203125 17.96744792 0 18 C0 12.06 0 6.12 0 0 Z " fill="#FFFFFF" transform="translate(906,29)"/>
</svg>
